<mxfile modified="2020-05-19T16:37:59.129Z" host="localhost" agent="5.0 (Macintosh; Intel Mac OS X 10_13_6) AppleWebKit/537.36 (KHTML, like Gecko) Code/1.45.0 Chrome/78.0.3904.130 Electron/7.2.4 Safari/537.36" etag="4LfWLYB1gu1s3iO6PSyS" version="13.0.9">
    <diagram id="Ht1M8jgEwFfnCIfOTk4-" name="Page-1">
        <mxGraphModel dx="1208" dy="915" grid="1" gridSize="10" guides="1" tooltips="1" connect="1" arrows="1" fold="1" page="1" pageScale="1" pageWidth="1100" pageHeight="850" math="0" shadow="0">
            <root>
                <mxCell id="0"/>
                <mxCell id="1" parent="0"/>
                <mxCell id="nx9IIVfp6BOKspy8PAZz-23" style="edgeStyle=orthogonalEdgeStyle;rounded=0;orthogonalLoop=1;jettySize=auto;html=1;" parent="1" source="nx9IIVfp6BOKspy8PAZz-5" target="nx9IIVfp6BOKspy8PAZz-7" edge="1">
                    <mxGeometry relative="1" as="geometry"/>
                </mxCell>
                <mxCell id="nx9IIVfp6BOKspy8PAZz-5" value="RDS PostGreSQL" style="outlineConnect=0;dashed=0;verticalLabelPosition=top;verticalAlign=bottom;align=center;html=1;shape=mxgraph.aws3.rds;fillColor=#2E73B8;gradientColor=none;labelPosition=center;" parent="1" vertex="1">
                    <mxGeometry x="855.25" y="187" width="72" height="81" as="geometry"/>
                </mxCell>
                <mxCell id="nx9IIVfp6BOKspy8PAZz-20" style="edgeStyle=orthogonalEdgeStyle;rounded=0;orthogonalLoop=1;jettySize=auto;html=1;exitX=0;exitY=0.5;exitDx=0;exitDy=0;exitPerimeter=0;" parent="1" source="nx9IIVfp6BOKspy8PAZz-7" target="nx9IIVfp6BOKspy8PAZz-10" edge="1">
                    <mxGeometry relative="1" as="geometry"/>
                </mxCell>
                <mxCell id="nx9IIVfp6BOKspy8PAZz-7" value="Data ETL&lt;br&gt;Lambda" style="outlineConnect=0;dashed=0;verticalLabelPosition=bottom;verticalAlign=top;align=center;html=1;shape=mxgraph.aws3.lambda;fillColor=#F58534;gradientColor=none;" parent="1" vertex="1">
                    <mxGeometry x="853" y="343" width="76.5" height="93" as="geometry"/>
                </mxCell>
                <mxCell id="nx9IIVfp6BOKspy8PAZz-25" style="edgeStyle=orthogonalEdgeStyle;rounded=0;orthogonalLoop=1;jettySize=auto;html=1;exitX=1;exitY=0.5;exitDx=0;exitDy=0;exitPerimeter=0;" parent="1" source="nx9IIVfp6BOKspy8PAZz-8" target="nx9IIVfp6BOKspy8PAZz-10" edge="1">
                    <mxGeometry relative="1" as="geometry"/>
                </mxCell>
                <mxCell id="nx9IIVfp6BOKspy8PAZz-8" value="ES API Proxy&lt;br&gt;Lambda&lt;br&gt;" style="outlineConnect=0;dashed=0;verticalLabelPosition=bottom;verticalAlign=top;align=center;html=1;shape=mxgraph.aws3.lambda;fillColor=#F58534;gradientColor=none;" parent="1" vertex="1">
                    <mxGeometry x="533" y="343" width="76.5" height="93" as="geometry"/>
                </mxCell>
                <mxCell id="nx9IIVfp6BOKspy8PAZz-24" style="edgeStyle=orthogonalEdgeStyle;rounded=0;orthogonalLoop=1;jettySize=auto;html=1;exitX=0.65;exitY=0.5;exitDx=0;exitDy=0;exitPerimeter=0;" parent="1" source="nx9IIVfp6BOKspy8PAZz-9" target="nx9IIVfp6BOKspy8PAZz-8" edge="1">
                    <mxGeometry relative="1" as="geometry"/>
                </mxCell>
                <mxCell id="nx9IIVfp6BOKspy8PAZz-37" style="edgeStyle=orthogonalEdgeStyle;rounded=0;orthogonalLoop=1;jettySize=auto;html=1;exitX=0.65;exitY=0.5;exitDx=0;exitDy=0;exitPerimeter=0;" parent="1" source="nx9IIVfp6BOKspy8PAZz-9" target="nx9IIVfp6BOKspy8PAZz-35" edge="1">
                    <mxGeometry relative="1" as="geometry"/>
                </mxCell>
                <mxCell id="nx9IIVfp6BOKspy8PAZz-9" value="Edge-optimized&lt;br&gt;API Gateway" style="outlineConnect=0;dashed=0;verticalLabelPosition=top;verticalAlign=bottom;align=center;html=1;shape=mxgraph.aws3.api_gateway;fillColor=#D9A741;gradientColor=none;labelPosition=center;" parent="1" vertex="1">
                    <mxGeometry x="326.5" y="250" width="76.5" height="93" as="geometry"/>
                </mxCell>
                <mxCell id="nx9IIVfp6BOKspy8PAZz-10" value="ElasticSearch" style="outlineConnect=0;dashed=0;verticalLabelPosition=bottom;verticalAlign=top;align=center;html=1;shape=mxgraph.aws3.elasticsearch_service;fillColor=#F58534;gradientColor=none;labelPosition=center;" parent="1" vertex="1">
                    <mxGeometry x="693" y="349" width="67.5" height="81" as="geometry"/>
                </mxCell>
                <mxCell id="nx9IIVfp6BOKspy8PAZz-30" value="" style="edgeStyle=orthogonalEdgeStyle;rounded=0;orthogonalLoop=1;jettySize=auto;html=1;" parent="1" source="nx9IIVfp6BOKspy8PAZz-28" target="nx9IIVfp6BOKspy8PAZz-9" edge="1">
                    <mxGeometry relative="1" as="geometry">
                        <mxPoint x="281.25" y="430" as="targetPoint"/>
                    </mxGeometry>
                </mxCell>
                <mxCell id="nx9IIVfp6BOKspy8PAZz-50" style="edgeStyle=orthogonalEdgeStyle;rounded=0;orthogonalLoop=1;jettySize=auto;html=1;exitX=0.5;exitY=1;exitDx=0;exitDy=0;exitPerimeter=0;" parent="1" source="nx9IIVfp6BOKspy8PAZz-28" target="nx9IIVfp6BOKspy8PAZz-49" edge="1">
                    <mxGeometry relative="1" as="geometry"/>
                </mxCell>
                <mxCell id="nx9IIVfp6BOKspy8PAZz-28" value="Route53" style="outlineConnect=0;dashed=0;verticalLabelPosition=top;verticalAlign=bottom;align=left;html=1;shape=mxgraph.aws3.route_53;fillColor=#F58536;gradientColor=none;labelPosition=right;" parent="1" vertex="1">
                    <mxGeometry x="163" y="253.75" width="70.5" height="85.5" as="geometry"/>
                </mxCell>
                <mxCell id="nx9IIVfp6BOKspy8PAZz-36" style="edgeStyle=orthogonalEdgeStyle;rounded=0;orthogonalLoop=1;jettySize=auto;html=1;exitX=1;exitY=0.5;exitDx=0;exitDy=0;exitPerimeter=0;" parent="1" source="nx9IIVfp6BOKspy8PAZz-35" target="nx9IIVfp6BOKspy8PAZz-10" edge="1">
                    <mxGeometry relative="1" as="geometry"/>
                </mxCell>
                <mxCell id="nx9IIVfp6BOKspy8PAZz-35" value="OGC API-features&lt;br&gt;pygeoapi&lt;br&gt;Lambda" style="outlineConnect=0;dashed=0;verticalLabelPosition=top;verticalAlign=bottom;align=center;html=1;shape=mxgraph.aws3.lambda;fillColor=#F58534;gradientColor=none;labelPosition=center;" parent="1" vertex="1">
                    <mxGeometry x="533" y="181" width="76.5" height="93" as="geometry"/>
                </mxCell>
                <mxCell id="nx9IIVfp6BOKspy8PAZz-40" value="" style="edgeStyle=orthogonalEdgeStyle;rounded=0;orthogonalLoop=1;jettySize=auto;html=1;" parent="1" source="2" target="nx9IIVfp6BOKspy8PAZz-28" edge="1">
                    <mxGeometry relative="1" as="geometry">
                        <mxPoint x="100.8579804922756" y="296.29999999999995" as="sourcePoint"/>
                    </mxGeometry>
                </mxCell>
                <mxCell id="nx9IIVfp6BOKspy8PAZz-44" value="" style="edgeStyle=orthogonalEdgeStyle;rounded=0;orthogonalLoop=1;jettySize=auto;html=1;entryX=0.5;entryY=0;entryDx=0;entryDy=0;entryPerimeter=0;" parent="1" source="nx9IIVfp6BOKspy8PAZz-42" target="2" edge="1">
                    <mxGeometry relative="1" as="geometry">
                        <mxPoint x="71.90000000000009" y="268" as="targetPoint"/>
                    </mxGeometry>
                </mxCell>
                <mxCell id="nx9IIVfp6BOKspy8PAZz-42" value="Users" style="outlineConnect=0;fontColor=#232F3E;gradientColor=none;strokeColor=#232F3E;fillColor=#ffffff;dashed=0;verticalLabelPosition=top;verticalAlign=bottom;align=center;html=1;fontSize=12;fontStyle=0;aspect=fixed;shape=mxgraph.aws4.resourceIcon;resIcon=mxgraph.aws4.users;labelPosition=center;" parent="1" vertex="1">
                    <mxGeometry x="44" y="121" width="60" height="60" as="geometry"/>
                </mxCell>
                <mxCell id="nx9IIVfp6BOKspy8PAZz-51" style="edgeStyle=orthogonalEdgeStyle;rounded=0;orthogonalLoop=1;jettySize=auto;html=1;exitX=0.5;exitY=0;exitDx=0;exitDy=0;exitPerimeter=0;" parent="1" source="nx9IIVfp6BOKspy8PAZz-48" target="nx9IIVfp6BOKspy8PAZz-49" edge="1">
                    <mxGeometry relative="1" as="geometry"/>
                </mxCell>
                <mxCell id="nx9IIVfp6BOKspy8PAZz-48" value="Website&lt;br&gt;S3 Bucket" style="outlineConnect=0;dashed=0;verticalLabelPosition=bottom;verticalAlign=top;align=center;html=1;shape=mxgraph.aws3.bucket_with_objects;fillColor=#E05243;gradientColor=none;" parent="1" vertex="1">
                    <mxGeometry x="334.75" y="664.25" width="60" height="61.5" as="geometry"/>
                </mxCell>
                <mxCell id="nx9IIVfp6BOKspy8PAZz-49" value="CloudFront" style="outlineConnect=0;dashed=0;verticalLabelPosition=middle;verticalAlign=middle;align=right;html=1;shape=mxgraph.aws3.cloudfront;fillColor=#F58536;gradientColor=none;labelPosition=left;" parent="1" vertex="1">
                    <mxGeometry x="326.5" y="525.75" width="76.5" height="93" as="geometry"/>
                </mxCell>
                <mxCell id="nx9IIVfp6BOKspy8PAZz-59" style="edgeStyle=orthogonalEdgeStyle;rounded=0;orthogonalLoop=1;jettySize=auto;html=1;exitX=0;exitY=0.5;exitDx=0;exitDy=0;exitPerimeter=0;" parent="1" source="nx9IIVfp6BOKspy8PAZz-52" target="nx9IIVfp6BOKspy8PAZz-48" edge="1">
                    <mxGeometry relative="1" as="geometry"/>
                </mxCell>
                <mxCell id="nx9IIVfp6BOKspy8PAZz-52" value="CodeBuild" style="outlineConnect=0;dashed=0;verticalLabelPosition=bottom;verticalAlign=top;align=center;html=1;shape=mxgraph.aws3.codebuild;fillColor=#759C3E;gradientColor=none;" parent="1" vertex="1">
                    <mxGeometry x="533" y="648.5" width="76.5" height="93" as="geometry"/>
                </mxCell>
                <mxCell id="nx9IIVfp6BOKspy8PAZz-56" style="edgeStyle=orthogonalEdgeStyle;rounded=0;orthogonalLoop=1;jettySize=auto;html=1;exitX=0;exitY=0.5;exitDx=0;exitDy=0;exitPerimeter=0;" parent="1" source="nx9IIVfp6BOKspy8PAZz-53" target="nx9IIVfp6BOKspy8PAZz-52" edge="1">
                    <mxGeometry relative="1" as="geometry"/>
                </mxCell>
                <mxCell id="nx9IIVfp6BOKspy8PAZz-58" style="edgeStyle=orthogonalEdgeStyle;rounded=0;orthogonalLoop=1;jettySize=auto;html=1;exitX=0.5;exitY=0;exitDx=0;exitDy=0;exitPerimeter=0;" parent="1" source="nx9IIVfp6BOKspy8PAZz-53" target="nx9IIVfp6BOKspy8PAZz-57" edge="1">
                    <mxGeometry relative="1" as="geometry"/>
                </mxCell>
                <mxCell id="nx9IIVfp6BOKspy8PAZz-53" value="CodePipeline" style="outlineConnect=0;dashed=0;verticalLabelPosition=bottom;verticalAlign=top;align=center;html=1;shape=mxgraph.aws3.codepipeline;fillColor=#759C3E;gradientColor=none;" parent="1" vertex="1">
                    <mxGeometry x="723" y="654.5" width="67.5" height="81" as="geometry"/>
                </mxCell>
                <mxCell id="nx9IIVfp6BOKspy8PAZz-55" style="edgeStyle=orthogonalEdgeStyle;rounded=0;orthogonalLoop=1;jettySize=auto;html=1;exitX=0;exitY=0.5;exitDx=0;exitDy=0;exitPerimeter=0;" parent="1" source="nx9IIVfp6BOKspy8PAZz-54" target="nx9IIVfp6BOKspy8PAZz-53" edge="1">
                    <mxGeometry relative="1" as="geometry"/>
                </mxCell>
                <mxCell id="nx9IIVfp6BOKspy8PAZz-54" value="GiHub" style="verticalLabelPosition=bottom;html=1;verticalAlign=top;align=center;strokeColor=none;fillColor=#00BEF2;shape=mxgraph.azure.github_code;pointerEvents=1;" parent="1" vertex="1">
                    <mxGeometry x="1003" y="670" width="50" height="50" as="geometry"/>
                </mxCell>
                <mxCell id="nx9IIVfp6BOKspy8PAZz-57" value="Code&lt;br&gt;S3 Bucket" style="outlineConnect=0;dashed=0;verticalLabelPosition=top;verticalAlign=bottom;align=center;html=1;shape=mxgraph.aws3.bucket_with_objects;fillColor=#E05243;gradientColor=none;labelPosition=center;" parent="1" vertex="1">
                    <mxGeometry x="726.75" y="530" width="60" height="61.5" as="geometry"/>
                </mxCell>
                <mxCell id="nx9IIVfp6BOKspy8PAZz-64" value="" style="edgeStyle=orthogonalEdgeStyle;rounded=0;orthogonalLoop=1;jettySize=auto;html=1;" parent="1" source="nx9IIVfp6BOKspy8PAZz-63" target="nx9IIVfp6BOKspy8PAZz-54" edge="1">
                    <mxGeometry relative="1" as="geometry"/>
                </mxCell>
                <mxCell id="nx9IIVfp6BOKspy8PAZz-63" value="Developers" style="outlineConnect=0;fontColor=#232F3E;gradientColor=none;strokeColor=#232F3E;fillColor=#ffffff;dashed=0;verticalLabelPosition=top;verticalAlign=bottom;align=center;html=1;fontSize=12;fontStyle=0;aspect=fixed;shape=mxgraph.aws4.resourceIcon;resIcon=mxgraph.aws4.users;labelPosition=center;" parent="1" vertex="1">
                    <mxGeometry x="998" y="542.25" width="60" height="60" as="geometry"/>
                </mxCell>
                <mxCell id="FZH1CaWembbzbwTOkasY-1" value="ca-central-1" style="rounded=1;arcSize=10;dashed=1;fillColor=none;gradientColor=none;dashPattern=1 1;strokeWidth=2;verticalAlign=top;" parent="1" vertex="1">
                    <mxGeometry x="150" y="100" width="810" height="690" as="geometry"/>
                </mxCell>
                <mxCell id="FZH1CaWembbzbwTOkasY-2" value="" style="rounded=1;arcSize=10;dashed=0;fillColor=none;gradientColor=none;strokeWidth=2;" parent="1" vertex="1">
                    <mxGeometry x="130" y="80" width="850" height="730" as="geometry"/>
                </mxCell>
                <mxCell id="FZH1CaWembbzbwTOkasY-3" value="" style="dashed=0;html=1;shape=mxgraph.aws3.cloud;fillColor=#F58536;gradientColor=none;dashed=0;" parent="1" vertex="1">
                    <mxGeometry x="147" y="54" width="52" height="36" as="geometry"/>
                </mxCell>
                <mxCell id="2" value="" style="outlineConnect=0;dashed=0;verticalLabelPosition=bottom;verticalAlign=top;align=center;html=1;shape=mxgraph.aws3.management_console;fillColor=#D2D3D3;gradientColor=none;" vertex="1" parent="1">
                    <mxGeometry x="42.5" y="265" width="63" height="63" as="geometry"/>
                </mxCell>
            </root>
        </mxGraphModel>
    </diagram>
</mxfile>